<svg xmlns="http://www.w3.org/2000/svg" width="150" height="47.83" viewBox="0 0 150 47.83"><path d="M12.22,5.58A12.11,12.11,0,0,0,11.15,4.5a62,62,0,0,1,10.18.9c.8.66,1.46,1.28,2,1.79l-1.73-.35A77.81,77.81,0,0,0,12.22,5.58Zm6.94-1.82A19.6,19.6,0,0,0,9.6.14,6.26,6.26,0,0,0,8.2,2.71a5,5,0,0,1,1.19.51,59,59,0,0,1,9.76.54Zm2.19,4.36a77.17,77.17,0,0,0-8-1.13,32.41,32.41,0,0,1,4.24,8.93,12.4,12.4,0,0,0,6.94-7.13c-1-.23-2.07-.46-3.17-.67Z" fill="#ac145a"></path><path d="M13.59,18.83l-2.4-1a23.81,23.81,0,0,0,4.1-.73,77.06,77.06,0,0,1,8.91,4.21,15.11,15.11,0,0,1-2,1.74C20.05,21.88,17.06,20.34,13.59,18.83ZM12.89,20c-1.29-.55-2.68-1.13-4.16-1.66a29.46,29.46,0,0,0,4.21,9.31,40,40,0,0,0,8-3.69c-2.09-1.15-4.89-2.58-8.08-4Zm4.33-3.48a77.59,77.59,0,0,1,7.85,3.79,8.21,8.21,0,0,0,1.54-5.72,14.68,14.68,0,0,0-1.5-5.41,13.18,13.18,0,0,1-7.89,7.34Z" fill="#201747"></path><path d="M5.82,25a25.25,25.25,0,0,1-4.28-3.36,44.22,44.22,0,0,1-1.2-5.8q1.52.32,3,.72A56,56,0,0,0,5.82,25ZM2.59,6.33A18.62,18.62,0,0,1,3.93.78a14.18,14.18,0,0,0-1.52.61A20.69,20.69,0,0,0,.05,11.78c.85.09,1.72.2,2.6.35A29.58,29.58,0,0,1,2.59,6.33Zm4.63,8.1c-.88-.23-1.77-.44-2.69-.63.08.63.19,1.24.3,1.83.91.27,1.85.57,2.79.9C7.47,15.85,7.34,15.16,7.22,14.43ZM2.69,13.3c-.88-.22-1.78-.44-2.69-.62q.14.95.3,1.83c.92.27,1.85.57,2.8.9-.15-.67-.29-1.37-.41-2.1Zm2.43,3.78A56,56,0,0,0,8,26.21a21.35,21.35,0,0,0,4.44,1.58A28.21,28.21,0,0,1,8,18c-.93-.33-1.88-.66-2.87-1ZM6.05.23C4.12,3.89,3.93,8.42,4.36,12.44l.38.07c.75.16,1.51.33,2.28.52-.06-.45-.11-.92-.16-1.39C6,2.42,9,0,9,0A12.51,12.51,0,0,0,6.05.23Z" fill="#4f758b"></path><path d="M37.23,18.25h2v1.29H32.53V18.25h2.1V4.65h-2.1V3.36h2.34c.69,0,1.45,0,2.26-.1s1.62-.09,2.41-.09a10.77,10.77,0,0,1,2.4.27,5.69,5.69,0,0,1,1.93.82,4.1,4.1,0,0,1,1.28,1.43,4.24,4.24,0,0,1,.49,2.07,4.19,4.19,0,0,1-1,2.83,5.6,5.6,0,0,1-2.7,1.66l4.6,6h1.42v1.29H44.18l-4.6-7H37.23Zm1.82-6.84a3.84,3.84,0,0,0,2.79-1,3.5,3.5,0,0,0,1-2.66,2.92,2.92,0,0,0-1.06-2.51A4.6,4.6,0,0,0,39,4.47a8.53,8.53,0,0,0-1,0l-.72.1v6.8ZM58.83,18a4,4,0,0,1-1.71,1.35,6.29,6.29,0,0,1-2.57.49,7.35,7.35,0,0,1-2.71-.45,5.15,5.15,0,0,1-3.16-3.26,7.94,7.94,0,0,1-.41-2.6,6.5,6.5,0,0,1,1.56-4.71,5.8,5.8,0,0,1,4.37-1.6A6.63,6.63,0,0,1,56,7.4a4.26,4.26,0,0,1,1.59.76,3.88,3.88,0,0,1,1.13,1.41,5.07,5.07,0,0,1,.43,2.17c0,.28,0,.56-.05.84s-.08.6-.14.92H50.87a6.16,6.16,0,0,0,.27,1.86A3.93,3.93,0,0,0,52,16.79a3.58,3.58,0,0,0,1.37.94,5.07,5.07,0,0,0,1.93.34,4.9,4.9,0,0,0,1.69-.3,4.66,4.66,0,0,0,1.25-.7ZM54.08,8.26a3.42,3.42,0,0,0-1.27.21,2.16,2.16,0,0,0-.94.7,3.65,3.65,0,0,0-.63,1.28,9.48,9.48,0,0,0-.3,2h5.6l0-.43c0-.15,0-.28,0-.4A4.25,4.25,0,0,0,56,9.17,2.14,2.14,0,0,0,54.08,8.26Zm13,8.51a1.49,1.49,0,0,0-.46-1.09,5.26,5.26,0,0,0-1.16-.87c-.46-.26-1-.53-1.5-.8a8.93,8.93,0,0,1-1.5-.93,4.8,4.8,0,0,1-1.16-1.22,3,3,0,0,1-.46-1.7,2.28,2.28,0,0,1,.32-1.22A3.09,3.09,0,0,1,62,8a4.16,4.16,0,0,1,1.29-.62,5.63,5.63,0,0,1,1.58-.22c.47,0,.88,0,1.23,0a8.65,8.65,0,0,1,1,.13,8.45,8.45,0,0,1,.84.19c.26.08.53.16.81.26v3.12H67.29V9.13l-.44-.5a5.61,5.61,0,0,0-.64-.12,6.23,6.23,0,0,0-.74,0,2.72,2.72,0,0,0-1.66.42A1.31,1.31,0,0,0,63.27,10,1.51,1.51,0,0,0,63.73,11a6.12,6.12,0,0,0,1.16.86c.46.26,1,.53,1.5.79a10,10,0,0,1,1.51.89,5,5,0,0,1,1.15,1.14,2.54,2.54,0,0,1,.46,1.55,2.84,2.84,0,0,1-.38,1.48,3.42,3.42,0,0,1-1,1.1,5.06,5.06,0,0,1-1.56.69,7.18,7.18,0,0,1-1.9.25,8.42,8.42,0,0,1-2.18-.29,6.28,6.28,0,0,1-1.66-.67v-3h1.48V17.5l.46.49a2.43,2.43,0,0,0,.72.36,3.67,3.67,0,0,0,1.09.14A3.31,3.31,0,0,0,66.37,18a1.42,1.42,0,0,0,.71-1.26ZM81.31,18A4.11,4.11,0,0,1,79.6,19.3a6.13,6.13,0,0,1-2.57.49,7.35,7.35,0,0,1-2.71-.45,5.19,5.19,0,0,1-2-1.27,5.42,5.42,0,0,1-1.2-2,7.84,7.84,0,0,1-.4-2.59,6.5,6.5,0,0,1,1.56-4.71,5.8,5.8,0,0,1,4.37-1.61,7.5,7.5,0,0,1,1.82.23,4.47,4.47,0,0,1,1.58.77,3.88,3.88,0,0,1,1.13,1.41,5,5,0,0,1,.43,2.17,7.55,7.55,0,0,1-.05.83c0,.3-.08.61-.14.93H73.35a5.8,5.8,0,0,0,.27,1.85,3.66,3.66,0,0,0,.82,1.43,3.58,3.58,0,0,0,1.36.94,5.16,5.16,0,0,0,1.94.34,4.85,4.85,0,0,0,1.69-.3,4.66,4.66,0,0,0,1.25-.7ZM76.55,8.26a3.37,3.37,0,0,0-1.26.21,2.16,2.16,0,0,0-.94.7,3.65,3.65,0,0,0-.63,1.28,9.48,9.48,0,0,0-.3,2H79l0-.43c0-.15,0-.28,0-.4a4.25,4.25,0,0,0-.61-2.43A2.14,2.14,0,0,0,76.55,8.26Zm16.11,8.07c0,.36,0,.71,0,1.08s0,.69.07,1H94.3v1.16H90.6l-.23-2.2h-.12a2.58,2.58,0,0,1-.43.9A3.25,3.25,0,0,1,89,19a4.08,4.08,0,0,1-1.13.55,4.35,4.35,0,0,1-1.43.21A4.23,4.23,0,0,1,85,19.57a3.61,3.61,0,0,1-1.15-.64,2.87,2.87,0,0,1-.75-1,3.19,3.19,0,0,1-.26-1.33,3.48,3.48,0,0,1,.47-1.87,3.2,3.2,0,0,1,1.4-1.17,8.14,8.14,0,0,1,2.31-.61,25.18,25.18,0,0,1,3.24-.21,5.49,5.49,0,0,0,0-.7v-.66a3.93,3.93,0,0,0-.49-2.16,1.9,1.9,0,0,0-1.72-.74c-.3,0-.64,0-1,0a2.48,2.48,0,0,0-1,.28v2.09h-2.1V8.3a12,12,0,0,1,2-.78,9,9,0,0,1,2.67-.35,5.45,5.45,0,0,1,2.13.34,3,3,0,0,1,1.23.87,2.71,2.71,0,0,1,.56,1.23A7.71,7.71,0,0,1,92.78,11q0,1.45-.06,2.79t-.06,2.58Zm-5.11,1.92a2.63,2.63,0,0,0,1-.17,3.27,3.27,0,0,0,.77-.44,3,3,0,0,0,.58-.59,5.23,5.23,0,0,0,.41-.63V13.67a11.71,11.71,0,0,0-2.44.2,4.53,4.53,0,0,0-1.47.52,1.7,1.7,0,0,0-.73.77,2.48,2.48,0,0,0-.2,1A2.11,2.11,0,0,0,86,17.71,2.09,2.09,0,0,0,87.55,18.25Zm13.14-8.76a3.11,3.11,0,0,0-.88.64,5.46,5.46,0,0,0-.74,1.06v7.2h2v1.15H94.93V18.39h1.71V8.56H94.93V7.4h4.14V9.74h.09a6.12,6.12,0,0,1,.93-1.33,6.84,6.84,0,0,1,1.2-1h2.22V9.49ZM114.36,18a4.46,4.46,0,0,1-1.54,1.24,5.25,5.25,0,0,1-2.49.56,7.14,7.14,0,0,1-2.67-.45,5,5,0,0,1-1.91-1.27,5.26,5.26,0,0,1-1.13-2,8.79,8.79,0,0,1-.37-2.6,6.37,6.37,0,0,1,1.63-4.7,6,6,0,0,1,4.43-1.62,11.47,11.47,0,0,1,2.11.16,6,6,0,0,1,1.53.51v3h-2.09V8.67a3.24,3.24,0,0,0-1.39-.2,4.36,4.36,0,0,0-1.56.25,2.7,2.7,0,0,0-1.14.83,4,4,0,0,0-.7,1.55,10.42,10.42,0,0,0-.23,2.37,5.93,5.93,0,0,0,.26,1.77,4.21,4.21,0,0,0,.76,1.47,3.6,3.6,0,0,0,1.29,1,4.35,4.35,0,0,0,1.82.36,4.13,4.13,0,0,0,1-.12q.38-.11.75-.24a3.92,3.92,0,0,0,.58-.29,4.21,4.21,0,0,0,.48-.35Zm14.87,1.55h-5.67V18.39h1.53V12.7a6.75,6.75,0,0,0-.51-2.94,1.84,1.84,0,0,0-1.81-1,3.33,3.33,0,0,0-1.28.23,3.77,3.77,0,0,0-1.07.6,4.44,4.44,0,0,0-.8.82,3.39,3.39,0,0,0-.5.89v7.12h1.53v1.16H115V18.39h1.71v-15h-2V2.2h4.39V9.86h0A4.68,4.68,0,0,1,120.82,8a4.82,4.82,0,0,1,2.73-.78,5.72,5.72,0,0,1,1.65.23,2.6,2.6,0,0,1,1.25.8,3.81,3.81,0,0,1,.79,1.55,9.37,9.37,0,0,1,.28,2.47V18.4h1.71Z" fill="#201747"></path><path d="M45,38.94h1.48v3.64a7.1,7.1,0,0,1-1.9.64,10.73,10.73,0,0,1-2.33.25A13.66,13.66,0,0,1,38.38,43a7.2,7.2,0,0,1-2.85-1.51,6.73,6.73,0,0,1-1.8-2.61,10.3,10.3,0,0,1-.62-3.77,9.64,9.64,0,0,1,.69-3.85,7.18,7.18,0,0,1,1.87-2.59,7.66,7.66,0,0,1,2.74-1.47,11.62,11.62,0,0,1,3.26-.46q.84,0,1.5.06a10,10,0,0,1,1.22.17,8.73,8.73,0,0,1,1,.28c.31.11.61.22.91.35v3.95H44.82V29.11l-.33-.46a7.58,7.58,0,0,0-.8-.28,7.09,7.09,0,0,0-1.75-.16,6.88,6.88,0,0,0-2.33.4,4.82,4.82,0,0,0-1.89,1.22A6.18,6.18,0,0,0,36.46,32,9.52,9.52,0,0,0,36,35.11a7.19,7.19,0,0,0,1.68,5.1A6.13,6.13,0,0,0,42.38,42a6.58,6.58,0,0,0,1.4-.13,2.39,2.39,0,0,0,.85-.33L45,41.1Zm3.1-1.79a7.59,7.59,0,0,1,.44-2.71,5.45,5.45,0,0,1,1.23-2,5.3,5.3,0,0,1,1.94-1.21,8.41,8.41,0,0,1,5.31,0,4.82,4.82,0,0,1,1.91,1.27,5.17,5.17,0,0,1,1.09,2,8.78,8.78,0,0,1,.36,2.6,7.66,7.66,0,0,1-.43,2.69,5.31,5.31,0,0,1-1.22,2A5.17,5.17,0,0,1,56.74,43a8.2,8.2,0,0,1-5.27,0,4.94,4.94,0,0,1-3-3.25A8.41,8.41,0,0,1,48.05,37.15Zm2.59,0a9.54,9.54,0,0,0,.21,2.06,4.72,4.72,0,0,0,.68,1.64A3.51,3.51,0,0,0,52.76,42a3.93,3.93,0,0,0,1.85.4,2.65,2.65,0,0,0,2.25-1.25,6.93,6.93,0,0,0,.88-4,10.24,10.24,0,0,0-.21-2.07,5.12,5.12,0,0,0-.66-1.67,3.28,3.28,0,0,0-1.16-1.09,3.49,3.49,0,0,0-1.73-.4,2.89,2.89,0,0,0-2.44,1.25A6.9,6.9,0,0,0,50.64,37.15ZM75.53,43.2H69.86V42h1.53v-5.8a6,6,0,0,0-.56-2.85,2.12,2.12,0,0,0-2-1,3.05,3.05,0,0,0-1.19.21,3.68,3.68,0,0,0-1,.55,3.51,3.51,0,0,0-.74.8,4,4,0,0,0-.47,1V42H67v1.16H61.28V42H63V32.21H61.28V31.06h4.14v2.41h0A5,5,0,0,1,67,31.6a4.11,4.11,0,0,1,2.49-.77,7.73,7.73,0,0,1,1.85.22,2.94,2.94,0,0,1,1.35.81,3.76,3.76,0,0,1,.83,1.55,8.44,8.44,0,0,1,.3,2.45V42h1.71Zm7.19-2.78a1.51,1.51,0,0,0-.46-1.08,5.42,5.42,0,0,0-1.16-.87c-.46-.27-1-.54-1.5-.81a9.66,9.66,0,0,1-1.51-.92,4.81,4.81,0,0,1-1.15-1.23,3.1,3.1,0,0,1-.47-1.7,2.37,2.37,0,0,1,.33-1.21,3.12,3.12,0,0,1,.87-.94A4.31,4.31,0,0,1,79,31.05a5.7,5.7,0,0,1,1.59-.22c.46,0,.87,0,1.23,0s.68.08,1,.13a7.72,7.72,0,0,1,.83.2l.82.25v3.13H82.92v-1.8l-.44-.5a6.09,6.09,0,0,0-.64-.11,6.27,6.27,0,0,0-.74-.05,2.66,2.66,0,0,0-1.66.43,1.3,1.3,0,0,0-.54,1.06,1.46,1.46,0,0,0,.46,1.07,6.12,6.12,0,0,0,1.16.86c.46.27,1,.53,1.5.79a10.22,10.22,0,0,1,1.5.89,4.87,4.87,0,0,1,1.16,1.15,2.51,2.51,0,0,1,.46,1.55,2.84,2.84,0,0,1-.38,1.48,3.45,3.45,0,0,1-1.05,1.1,5.14,5.14,0,0,1-1.55.69,7.17,7.17,0,0,1-1.9.24,8,8,0,0,1-2.17-.29,5.75,5.75,0,0,1-1.66-.68v-3h1.48v1.73l.46.48a2.73,2.73,0,0,0,.72.37,3.59,3.59,0,0,0,1.08.13A3.34,3.34,0,0,0,82,41.69,1.44,1.44,0,0,0,82.72,40.42Zm4.65-2c0-1,0-2.06.07-3.12s.07-2.08.07-3.06H85.75V31.06h4.16c0,1.2-.06,2.35-.08,3.45s0,2.25,0,3.44a11.75,11.75,0,0,0,.1,1.68,3.66,3.66,0,0,0,.39,1.24,1.92,1.92,0,0,0,.81.76,3,3,0,0,0,1.28.26,2.73,2.73,0,0,0,2-.75,4.68,4.68,0,0,0,1.2-2V32.21H93.84V31.06H98V42h1.71V43.2H95.81l-.16-2.64h-.12a3,3,0,0,1-.45,1,4.09,4.09,0,0,1-.84.92,4.68,4.68,0,0,1-1.18.69,3.85,3.85,0,0,1-1.46.26,6.65,6.65,0,0,1-1.83-.22,2.75,2.75,0,0,1-1.31-.8,3.73,3.73,0,0,1-.81-1.55,9.37,9.37,0,0,1-.28-2.47Zm18.92,4.81h-5.86V42h1.72V27h-2V25.86h4.39V42h1.72Zm.41-12.14h2.06v-2.9h2.43v2.9H115v1.48h-3.84v6.75a4.11,4.11,0,0,0,.37,2.06,1.31,1.31,0,0,0,1.2.6A2.78,2.78,0,0,0,114,41.7a7.07,7.07,0,0,0,1-.56l.58.91a4.35,4.35,0,0,1-.57.45,5.9,5.9,0,0,1-.82.45,6.93,6.93,0,0,1-1,.35,5,5,0,0,1-1.16.13,3.21,3.21,0,0,1-2.37-.8,3.55,3.55,0,0,1-.82-2.65V32.53h-2.06ZM121.94,43.2h-5.85V42h1.71V32.21h-1.71V31.06h4.14V42h1.71Zm-4.65-15.89a1.32,1.32,0,0,1,.49-1.06,1.88,1.88,0,0,1,1.21-.4,1.85,1.85,0,0,1,1.24.4,1.49,1.49,0,0,1,0,2.09l0,0a1.89,1.89,0,0,1-1.24.39,1.81,1.81,0,0,1-1.21-.39,1.34,1.34,0,0,1-.49-1.07ZM137,43.2h-5.67V42h1.52v-5.8a6,6,0,0,0-.55-2.85,2.12,2.12,0,0,0-2-1,3.05,3.05,0,0,0-1.19.21,3.63,3.63,0,0,0-1.7,1.35,4,4,0,0,0-.49,1V42h1.53v1.16h-5.67V42h1.71V32.21h-1.71V31.06h4.14v2.41h0a5,5,0,0,1,1.56-1.87,4.11,4.11,0,0,1,2.49-.77,6.79,6.79,0,0,1,1.85.22,2.82,2.82,0,0,1,1.36.8A3.89,3.89,0,0,1,135,33.4a9,9,0,0,1,.29,2.48v6.17H137Zm13-12.14v1.48h-2.71a3.22,3.22,0,0,1,.6.9,3.18,3.18,0,0,1,.28,1.39,3.32,3.32,0,0,1-1.33,2.75,6.22,6.22,0,0,1-3.86,1h-.79a3.19,3.19,0,0,1-.69-.1c-.09.17-.19.33-.29.49a1,1,0,0,0-.18.57c0,.32.2.57.61.73a9.58,9.58,0,0,0,1.5.44c.6.13,1.25.26,2,.39a9.77,9.77,0,0,1,2,.58,4.57,4.57,0,0,1,1.52,1,2.33,2.33,0,0,1,.6,1.65,2.74,2.74,0,0,1-.45,1.54A3.43,3.43,0,0,1,147.47,47a6.67,6.67,0,0,1-1.95.64,12.88,12.88,0,0,1-2.47.21,9.51,9.51,0,0,1-4.33-.76A2.34,2.34,0,0,1,137.29,45a2.38,2.38,0,0,1,.87-2,7.39,7.39,0,0,1,2.47-1.17,3.52,3.52,0,0,1-1-.55,1.08,1.08,0,0,1-.37-.9,1.4,1.4,0,0,1,.13-.57,2.65,2.65,0,0,1,.37-.55,3.92,3.92,0,0,1,1-.85,4.31,4.31,0,0,1-2.28-1.34,3.42,3.42,0,0,1-.81-2.27,3.23,3.23,0,0,1,1.32-2.7,6.27,6.27,0,0,1,3.89-1Zm-3.24,13.85a1.47,1.47,0,0,0-.54-1.21,4.3,4.3,0,0,0-1.36-.74,13.61,13.61,0,0,0-1.77-.48A15.58,15.58,0,0,1,141.3,42,3.45,3.45,0,0,0,140,43.21a2.53,2.53,0,0,0-.31,1.26,1.9,1.9,0,0,0,1,1.62,5,5,0,0,0,2.82.65,6.85,6.85,0,0,0,1.57-.15,3.3,3.3,0,0,0,1-.41,1.41,1.41,0,0,0,.53-.58,1.49,1.49,0,0,0,.16-.69Zm-6.57-10.13a4.63,4.63,0,0,0,.14,1.11,2,2,0,0,0,1.3,1.43,3.8,3.8,0,0,0,1.34.21,2.69,2.69,0,0,0,2.13-.75,2.92,2.92,0,0,0,.64-2c0-.27,0-.54,0-.8a3.7,3.7,0,0,0-.1-.58,3,3,0,0,0-.12-.45c-.05-.13-.09-.27-.14-.41a4.4,4.4,0,0,0-1.13-.31,8.65,8.65,0,0,0-1.25-.08,2.92,2.92,0,0,0-2.17.64,2.89,2.89,0,0,0-.61,2Z" fill="#ac145a"></path></svg>